<?xml version="1.0" encoding="UTF-8"?>
<svg version="1.1" xmlns="http://www.w3.org/2000/svg" width="1829" height="655">
<path d="M0 0 C0.91056152 -0.02231689 1.82112305 -0.04463379 2.75927734 -0.06762695 C8.11686388 -0.05048193 12.94461822 0.57490922 18.14903259 1.86271667 C34.87166742 5.87223086 52.16463356 5.11652408 69.25506592 5.17572021 C74.56617169 5.19904369 79.87706728 5.25139135 85.18800354 5.29866028 C93.18788921 5.36671911 101.18717729 5.39877627 109.1875 5.4375 C109.1875 19.2975 109.1875 33.1575 109.1875 47.4375 C96.9775 47.4375 84.7675 47.4375 72.1875 47.4375 C73.8375 50.7375 75.4875 54.0375 77.1875 57.4375 C82.4096618 71.86061355 79.1389294 89.17043468 73 102.8125 C65.14443809 117.10625944 50.92272819 127.33302879 35.4765625 131.88671875 C23.98436875 135.06673823 13.30832299 136.61751829 1.375 136.625 C0.35857422 136.63724609 -0.65785156 136.64949219 -1.70507812 136.66210938 C-8.63038842 136.67535089 -15.04291613 135.84499469 -21.8125 134.4375 C-25.06946104 133.76583293 -25.06946104 133.76583293 -27.8125 134.4375 C-31.07415927 137.13191418 -32.47791474 138.74568583 -33.296875 142.88671875 C-33.53027055 147.22398612 -33.29744734 149.70225726 -30.875 153.375 C-20.11995415 160.61819414 -6.51428933 159.57379019 5.9375 159.6484375 C7.91517997 159.66933478 9.89285991 159.69025016 11.87052917 159.71213722 C16.67908347 159.76456424 21.4876364 159.80922509 26.29638672 159.83886719 C81.40010168 160.19728538 81.40010168 160.19728538 100.0625 177.6875 C109.30400673 187.54069859 111.67389798 198.72652813 111.43359375 211.88671875 C110.33193377 227.78209846 102.86052909 240.90147855 91.1875 251.4375 C59.90102139 277.19086926 14.56178123 281.10838278 -24.3125 277.75 C-46.94880334 275.47579195 -68.14727336 269.9383541 -83.64453125 252.359375 C-90.03802332 243.95916644 -91.81755615 232.69585652 -90.5 222.375 C-87.44802277 209.33473367 -78.78274509 200.36310343 -67.6875 193.4375 C-66.29144531 192.633125 -66.29144531 192.633125 -64.8671875 191.8125 C-64.18914062 191.35875 -63.51109375 190.905 -62.8125 190.4375 C-62.8125 189.7775 -62.8125 189.1175 -62.8125 188.4375 C-64.40286585 186.90732639 -64.40286585 186.90732639 -66.4375 185.3125 C-74.27537887 178.59828164 -79.12928116 171.55647162 -80.12890625 161.140625 C-80.57426736 147.98092263 -76.53831795 138.25774257 -67.8125 128.4375 C-64.61779913 125.56135905 -61.30797193 122.93733546 -57.8125 120.4375 C-58.8025 119.4475 -58.8025 119.4475 -59.8125 118.4375 C-60.26882813 117.97472656 -60.72515625 117.51195312 -61.1953125 117.03515625 C-62.33152834 115.91266283 -63.49596835 114.81837491 -64.6796875 113.74609375 C-76.45359786 102.77390881 -81.99940572 88.3578218 -82.7890625 72.45458984 C-83.29621933 53.56752622 -77.19176576 36.7985882 -64.5 22.90625 C-47.11495898 6.2074606 -23.483941 0.32621823 0 0 Z M-21.37890625 48.50390625 C-28.1216402 57.59832943 -28.80015931 67.45185927 -27.8125 78.4375 C-26.10266923 86.32744199 -21.56133621 93.37516637 -14.72265625 97.78515625 C-7.07267948 101.75972519 0.55169686 102.7744726 8.875 100.1875 C17.12081517 97.08100366 22.17763832 92.186674 26.23046875 84.4453125 C29.61002692 76.03608326 29.6669678 65.49653076 26.625 57 C22.86559368 49.07226948 17.47413266 43.46169377 9.1875 40.4375 C-1.75632333 37.19812829 -13.69524016 39.93578939 -21.37890625 48.50390625 Z M-37.22265625 206.63671875 C-41.47152462 211.44931904 -43.52139392 215.76449564 -43.19921875 222.296875 C-42.39367568 226.75584068 -39.7928917 229.4571083 -36.6875 232.5625 C-19.59903457 243.70715137 5.56276951 243.40543324 24.94921875 240.125 C35.63489391 237.85638863 47.62200404 234.93118347 54.375 225.625 C56.40770594 221.83545536 56.73111702 218.69856485 55.9609375 214.484375 C54.61056656 210.91066606 52.35522497 209.40985706 49.1875 207.4375 C41.19815358 204.03777812 32.68167969 204.26115384 24.1484375 204.15625 C22.99058746 204.13784058 21.83273743 204.11943115 20.63980103 204.10046387 C16.94741701 204.04194974 13.25498689 203.98908586 9.5625 203.9375 C4.71606247 203.86920436 -0.13025116 203.79542458 -4.9765625 203.71875 C-6.61475449 203.69838684 -6.61475449 203.69838684 -8.28604126 203.6776123 C-14.90461945 203.5729867 -21.39593209 203.15831378 -27.97445679 202.40222168 C-32.04522329 202.45282338 -34.28520761 203.93525964 -37.22265625 206.63671875 Z " fill="#2E3091" transform="translate(1495.8125,167.5625)"/>
<path d="M0 0 C19.47 0 38.94 0 59 0 C59.33 33 59.66 66 60 100 C69.81126645 86.9188273 69.81126645 86.9188273 79.3828125 73.6796875 C82.33569068 69.51932954 85.32327643 65.38428726 88.3125 61.25 C88.860271 60.49219238 89.40804199 59.73438477 89.97241211 58.95361328 C91.09038993 57.40715075 92.20847322 55.86076446 93.32666016 54.31445312 C95.51290084 51.29058944 97.69758074 48.26560032 99.88208008 45.24047852 C100.9612255 43.74608926 102.04048995 42.25178595 103.11987305 40.75756836 C105.85505868 36.97111649 108.58889928 33.18370549 111.3203125 29.39453125 C116.60898553 22.05996042 121.90853032 14.73374655 127.25 7.4375 C127.94923584 6.48097534 127.94923584 6.48097534 128.66259766 5.50512695 C131.87916477 1.12083523 131.87916477 1.12083523 133 0 C134.9943173 -0.09405142 136.99199543 -0.11743249 138.98852539 -0.11352539 C140.26977798 -0.11344986 141.55103058 -0.11337433 142.87110901 -0.11329651 C144.27995848 -0.10818909 145.68880756 -0.10297309 147.09765625 -0.09765625 C148.53112234 -0.09579202 149.96458907 -0.09436814 151.39805603 -0.09336853 C155.17759957 -0.08954372 158.9571049 -0.07971377 162.7366333 -0.06866455 C166.59069298 -0.05844963 170.44475882 -0.05387074 174.29882812 -0.04882812 C181.86590287 -0.03809146 189.43294609 -0.02101549 197 0 C195.08834902 4.01294557 192.55832057 7.41342607 189.875 10.9375 C189.35075439 11.63133789 188.82650879 12.32517578 188.28637695 13.04003906 C183.26110892 19.68200552 178.20336993 26.2995283 173.14941406 32.91967773 C168.44286492 39.089603 163.77358644 45.28631457 159.125 51.5 C154.3770518 57.84500746 149.59608997 64.15924 144.75 70.4296875 C140.99833282 75.29006496 137.28286247 80.17815114 133.5625 85.0625 C132.86326416 85.98023193 132.16402832 86.89796387 131.44360352 87.84350586 C128.71967505 91.42013632 128.71967505 91.42013632 126 95 C125.392771 95.62962646 124.78554199 96.25925293 124.15991211 96.90795898 C122.67944602 99.03839638 122.67944602 99.03839638 123.61230469 101.87402344 C125.0098073 105.0220923 126.51870969 108.0110694 128.203125 111.015625 C128.51742462 111.58022934 128.83172424 112.14483368 129.1555481 112.72654724 C129.83108375 113.9390564 130.50885312 115.15032331 131.18865967 116.36044312 C133.00851282 119.60041803 134.81178668 122.84961322 136.6171875 126.09765625 C137.16948532 127.08974846 137.16948532 127.08974846 137.73294067 128.10188293 C141.343736 134.59663806 144.86637716 141.13696413 148.375 147.6875 C152.60379407 155.57253098 156.87644818 163.42790735 161.24365234 171.23706055 C164.71810398 177.46147054 168.11273322 183.72779246 171.5 190 C175.67509594 197.73031393 179.88984354 205.43503456 184.17602539 213.10424805 C188.39839654 220.67743535 192.51287651 228.30882508 196.62304688 235.94335938 C197.14833984 236.91724609 197.67363281 237.89113281 198.21484375 238.89453125 C198.91275024 240.19161011 198.91275024 240.19161011 199.62475586 241.51489258 C200.59479563 243.26778355 201.61669866 244.99245583 202.67407227 246.6940918 C204 249 204 249 204 251 C182.88 251 161.76 251 140 251 C128.51179527 229.17241101 128.51179527 229.17241101 125.00927734 222.13208008 C124.59816711 221.31000565 124.18705688 220.48793121 123.76348877 219.64094543 C122.45239854 217.01808787 121.14411749 214.39384134 119.8359375 211.76953125 C118.90875668 209.91329752 117.98139504 208.0571541 117.05386353 206.20109558 C114.64870256 201.38701054 112.24594883 196.57172821 109.84375 191.75616455 C107.37779755 186.81390971 104.90949365 181.87282954 102.44140625 176.93164062 C97.62534362 167.28888795 92.81183139 157.64486472 88 148 C87.34 148 86.68 148 86 148 C84.5882016 149.44543135 84.5882016 149.44543135 83.1640625 151.375 C82.30748047 152.48488281 82.30748047 152.48488281 81.43359375 153.6171875 C80.83675781 154.40351563 80.23992187 155.18984375 79.625 156 C78.78775391 157.08667969 78.78775391 157.08667969 77.93359375 158.1953125 C76.68529885 159.82112704 75.46506378 161.46867416 74.265625 163.13085938 C72.52537609 165.33467459 70.91797316 167.05537979 68.890625 168.94726562 C58.3459697 179.55396097 58.55225362 191.49115387 58.57180595 205.58387756 C58.5961203 208.75121707 58.65304313 211.91756235 58.71246338 215.08441162 C58.78663654 219.85766532 58.76999629 224.63141943 58.76914978 229.40513611 C58.77775626 236.60611096 58.89931412 243.7970868 59 251 C39.53 251 20.06 251 0 251 C0 168.17 0 85.34 0 0 Z " fill="#2E3091" transform="translate(83,113)"/>
<path d="M0 0 C19.14 0 38.28 0 58 0 C58.08021762 17.3359187 58.08021762 17.3359187 58.09765625 24.875 C58.10949189 29.96716618 58.12330229 35.05925873 58.15087891 40.15136719 C58.24791581 58.53584672 58.27444527 76.71981928 56 95 C56.84336914 94.30414795 57.68673828 93.6082959 58.55566406 92.89135742 C76.23923454 78.45992134 96.18288693 72.10066753 119 74 C132.57702788 75.7703246 144.24157701 80.57560776 155 89 C155.69867187 89.53367187 156.39734375 90.06734375 157.1171875 90.6171875 C170.59241422 101.57564035 179.03633182 119.36025292 183 136 C183.29777344 137.19238281 183.59554688 138.38476562 183.90234375 139.61328125 C190.93040139 171.50137025 186.83123521 208.83750013 170 237 C157.19805905 256.05380396 140.01074544 269.30418538 117.32421875 274.2734375 C98.11351989 277.89112237 80.25474699 272.9236184 64.2265625 262.1328125 C62.08223143 260.48614189 60.03016928 258.78471849 58 257 C57.3090625 256.41605469 56.618125 255.83210937 55.90625 255.23046875 C54.25864076 253.83457759 52.62727795 252.41954034 51 251 C50.35377959 253.41656376 49.70800996 255.83324646 49.0625 258.25 C48.88009766 258.93191406 48.69769531 259.61382812 48.50976562 260.31640625 C47.64934199 263.53908387 46.80902424 266.76390303 46 270 C30.82 270 15.64 270 0 270 C0 180.9 0 91.8 0 0 Z M66 131 C65.34692368 131.37026306 64.69384735 131.74052612 64.02098083 132.12200928 C60.03342275 134.78449347 58.2518764 136.83811377 57.22018433 141.597229 C56.78452971 146.22533532 56.80615206 150.85563341 56.83203125 155.5 C56.81900876 157.22202059 56.80405977 158.94402758 56.78727722 160.66601562 C56.76200478 164.26745673 56.7670337 167.86732184 56.79223633 171.46875 C56.82103936 176.07397821 56.7636209 180.6735247 56.68205738 185.2779541 C56.63051501 188.8317366 56.63032002 192.38416111 56.64484215 195.93823242 C56.64463621 197.63509963 56.62739234 199.33205709 56.59244728 201.02856445 C56.17394742 210.49086934 56.17394742 210.49086934 60.33554077 218.55322266 C63.17639494 220.41578236 65.8415604 221.76095317 69 223 C70.02136551 223.42571289 71.04273102 223.85142578 72.095047 224.29003906 C82.95236503 228.62489451 93.09284307 229.47125688 104 225 C114.55673705 219.61813405 119.8461442 211.46103886 123.95703125 200.6015625 C129.79161693 180.45366736 130.48904455 154.18291378 120.1875 135.375 C115.61226494 128.55228105 110.10147442 123.84369102 102 122 C88.0837659 119.6441021 77.19216684 122.46360156 66 131 Z " fill="#2E3191" transform="translate(970,94)"/>
<path d="M0 0 C16.04005486 14.92098127 22.90530558 36.57683818 23.7220459 57.98596191 C23.8698755 64.87234324 23.84015753 71.75669688 23.78057575 78.64401531 C23.75514101 82.09388074 23.75318768 85.54376865 23.74847412 88.99371338 C23.73616537 95.49200999 23.70351261 101.99002932 23.66307616 108.48820519 C23.61797549 115.9008222 23.59627636 123.31345422 23.57629442 130.72617483 C23.53476513 145.94262855 23.46156963 161.15872329 23.375 176.375 C7.865 176.375 -7.645 176.375 -23.625 176.375 C-24.615 172.085 -25.605 167.795 -26.625 163.375 C-27.26924417 161.03537645 -27.92273754 158.69786813 -28.625 156.375 C-29.48738281 156.99246094 -30.34976562 157.60992187 -31.23828125 158.24609375 C-54.77015124 174.72364516 -82.22625328 185.39174244 -111.32421875 180.7265625 C-126.4274499 177.77271935 -140.23126702 170.41815397 -149.5 157.828125 C-151.01301019 155.39217859 -152.35119833 152.94321501 -153.625 150.375 C-154.20701172 149.24771484 -154.20701172 149.24771484 -154.80078125 148.09765625 C-162.23992581 132.70538986 -161.06307108 115.1777959 -155.625 99.375 C-148.59839234 82.94945734 -133.39469695 74.02236882 -117.75 67.25 C-91.51515011 56.94593581 -62.50387196 54.26197276 -34.625 52.375 C-35.23178504 50.62013614 -35.84664374 48.86806271 -36.46484375 47.1171875 C-36.80636475 46.14120605 -37.14788574 45.16522461 -37.49975586 44.15966797 C-40.08339322 37.76588022 -43.78285505 34.52807613 -49.9375 31.5625 C-72.22558272 22.50424178 -94.87293521 28.43835357 -116.15234375 37.3984375 C-120.49435977 39.28169972 -124.72702041 41.32786146 -128.84765625 43.66015625 C-130.625 44.375 -130.625 44.375 -133.625 43.375 C-135.27905273 40.80224609 -135.27905273 40.80224609 -137.05859375 37.3984375 C-137.37780289 36.7949649 -137.69701202 36.19149231 -138.02589417 35.56973267 C-139.04720148 33.63445175 -140.05512809 31.69256527 -141.0625 29.75 C-142.06915534 27.83046658 -143.07849835 25.91236754 -144.08839417 23.99453735 C-145.01046716 22.24001297 -145.92618727 20.48215422 -146.84155273 18.72412109 C-148.12589438 16.31226638 -149.4503185 13.98211654 -150.84790039 11.63916016 C-152.625 8.375 -152.625 8.375 -152.625 5.375 C-106.95653047 -18.30961316 -44.322209 -36.31217123 0 0 Z M-98.0637207 103.78686523 C-102.13777356 108.48952445 -104.77530892 113.41468683 -104.53515625 119.7421875 C-103.63365591 124.84210372 -101.85837723 129.18785788 -97.625 132.375 C-87.19108968 138.38807938 -73.91830581 137.75052496 -62.5625 134.9375 C-55.05388493 132.50696564 -48.00889158 128.7987848 -41.39306641 124.50708008 C-39.71010173 123.42949002 -37.94496508 122.4835529 -36.1796875 121.546875 C-33.81904297 119.50486207 -33.61714322 118.32090437 -33.15917969 115.16772461 C-33.03249948 111.11421537 -33.10152719 107.11281947 -33.25 103.0625 C-33.28011718 101.64002997 -33.30748995 100.21749902 -33.33203125 98.79492188 C-33.39793801 95.32034317 -33.50135849 91.84805835 -33.625 88.375 C-52.93464077 87.9529826 -83.31096372 89.30948637 -98.0637207 103.78686523 Z " fill="#2E3091" transform="translate(1347.625,187.625)"/>
<path d="M0 0 C16.04005486 14.92098127 22.90530558 36.57683818 23.7220459 57.98596191 C23.8698755 64.87234324 23.84015753 71.75669688 23.78057575 78.64401531 C23.75514101 82.09388074 23.75318768 85.54376865 23.74847412 88.99371338 C23.73616537 95.49200999 23.70351261 101.99002932 23.66307616 108.48820519 C23.61797549 115.9008222 23.59627636 123.31345422 23.57629442 130.72617483 C23.53476513 145.94262855 23.46156963 161.15872329 23.375 176.375 C7.865 176.375 -7.645 176.375 -23.625 176.375 C-24.615 172.085 -25.605 167.795 -26.625 163.375 C-27.26924417 161.03537645 -27.92273754 158.69786813 -28.625 156.375 C-29.48738281 156.99246094 -30.34976563 157.60992187 -31.23828125 158.24609375 C-54.77015124 174.72364516 -82.22625328 185.39174244 -111.32421875 180.7265625 C-126.4274499 177.77271935 -140.23126702 170.41815397 -149.5 157.828125 C-151.01301019 155.39217859 -152.35119833 152.94321501 -153.625 150.375 C-154.20701172 149.24771484 -154.20701172 149.24771484 -154.80078125 148.09765625 C-162.23992581 132.70538986 -161.06307108 115.1777959 -155.625 99.375 C-148.59839234 82.94945734 -133.39469695 74.02236882 -117.75 67.25 C-91.51515011 56.94593581 -62.50387196 54.26197276 -34.625 52.375 C-35.23178504 50.62013614 -35.84664374 48.86806271 -36.46484375 47.1171875 C-36.80636475 46.14120605 -37.14788574 45.16522461 -37.49975586 44.15966797 C-40.08339322 37.76588022 -43.78285505 34.52807613 -49.9375 31.5625 C-72.22558272 22.50424178 -94.87293521 28.43835357 -116.15234375 37.3984375 C-120.49435977 39.28169972 -124.72702041 41.32786146 -128.84765625 43.66015625 C-130.625 44.375 -130.625 44.375 -133.625 43.375 C-135.27905273 40.80224609 -135.27905273 40.80224609 -137.05859375 37.3984375 C-137.37780289 36.7949649 -137.69701202 36.19149231 -138.02589417 35.56973267 C-139.04720148 33.63445175 -140.05512809 31.69256527 -141.0625 29.75 C-142.06915534 27.83046658 -143.07849835 25.91236754 -144.08839417 23.99453735 C-145.01046716 22.24001297 -145.92618727 20.48215422 -146.84155273 18.72412109 C-148.12589438 16.31226638 -149.4503185 13.98211654 -150.84790039 11.63916016 C-152.625 8.375 -152.625 8.375 -152.625 5.375 C-106.95653047 -18.30961316 -44.322209 -36.31217123 0 0 Z M-98.0637207 103.78686523 C-102.13777356 108.48952445 -104.77530892 113.41468683 -104.53515625 119.7421875 C-103.63365591 124.84210372 -101.85837723 129.18785788 -97.625 132.375 C-87.19108968 138.38807938 -73.91830581 137.75052496 -62.5625 134.9375 C-55.05388493 132.50696564 -48.00889158 128.7987848 -41.39306641 124.50708008 C-39.71010173 123.42949002 -37.94496508 122.4835529 -36.1796875 121.546875 C-33.81904297 119.50486207 -33.61714322 118.32090437 -33.15917969 115.16772461 C-33.03249948 111.11421537 -33.10152719 107.11281947 -33.25 103.0625 C-33.28011718 101.64002997 -33.30748995 100.21749902 -33.33203125 98.79492188 C-33.39793801 95.32034317 -33.50135849 91.84805835 -33.625 88.375 C-52.93464077 87.9529826 -83.31096372 89.30948637 -98.0637207 103.78686523 Z " fill="#2E3091" transform="translate(904.625,187.625)"/>
<path d="M0 0 C16.04005486 14.92098127 22.90530558 36.57683818 23.7220459 57.98596191 C23.8698755 64.87234324 23.84015753 71.75669688 23.78057575 78.64401531 C23.75514101 82.09388074 23.75318768 85.54376865 23.74847412 88.99371338 C23.73616537 95.49200999 23.70351261 101.99002932 23.66307616 108.48820519 C23.61797549 115.9008222 23.59627636 123.31345422 23.57629442 130.72617483 C23.53476513 145.94262855 23.46156963 161.15872329 23.375 176.375 C7.865 176.375 -7.645 176.375 -23.625 176.375 C-24.615 172.085 -25.605 167.795 -26.625 163.375 C-27.26924417 161.03537645 -27.92273754 158.69786813 -28.625 156.375 C-29.48738281 156.99246094 -30.34976563 157.60992187 -31.23828125 158.24609375 C-54.77015124 174.72364516 -82.22625328 185.39174244 -111.32421875 180.7265625 C-126.4274499 177.77271935 -140.23126702 170.41815397 -149.5 157.828125 C-151.01301019 155.39217859 -152.35119833 152.94321501 -153.625 150.375 C-154.20701172 149.24771484 -154.20701172 149.24771484 -154.80078125 148.09765625 C-162.23992581 132.70538986 -161.06307108 115.1777959 -155.625 99.375 C-148.59839234 82.94945734 -133.39469695 74.02236882 -117.75 67.25 C-91.51515011 56.94593581 -62.50387196 54.26197276 -34.625 52.375 C-35.23178504 50.62013614 -35.84664374 48.86806271 -36.46484375 47.1171875 C-36.80636475 46.14120605 -37.14788574 45.16522461 -37.49975586 44.15966797 C-40.08339322 37.76588022 -43.78285505 34.52807613 -49.9375 31.5625 C-72.22558272 22.50424178 -94.87293521 28.43835357 -116.15234375 37.3984375 C-120.49435977 39.28169972 -124.72702041 41.32786146 -128.84765625 43.66015625 C-130.625 44.375 -130.625 44.375 -133.625 43.375 C-135.27905273 40.80224609 -135.27905273 40.80224609 -137.05859375 37.3984375 C-137.37780289 36.7949649 -137.69701202 36.19149231 -138.02589417 35.56973267 C-139.04720148 33.63445175 -140.05512809 31.69256527 -141.0625 29.75 C-142.06915534 27.83046658 -143.07849835 25.91236754 -144.08839417 23.99453735 C-145.01046716 22.24001297 -145.92618727 20.48215422 -146.84155273 18.72412109 C-148.12589438 16.31226638 -149.4503185 13.98211654 -150.84790039 11.63916016 C-152.625 8.375 -152.625 8.375 -152.625 5.375 C-106.95653047 -18.30961316 -44.322209 -36.31217123 0 0 Z M-98.0637207 103.78686523 C-102.13777356 108.48952445 -104.77530892 113.41468683 -104.53515625 119.7421875 C-103.63365591 124.84210372 -101.85837723 129.18785788 -97.625 132.375 C-87.19108968 138.38807938 -73.91830581 137.75052496 -62.5625 134.9375 C-55.05388493 132.50696564 -48.00889158 128.7987848 -41.39306641 124.50708008 C-39.71010173 123.42949002 -37.94496508 122.4835529 -36.1796875 121.546875 C-33.81904297 119.50486207 -33.61714322 118.32090437 -33.15917969 115.16772461 C-33.03249948 111.11421537 -33.10152719 107.11281947 -33.25 103.0625 C-33.28011718 101.64002997 -33.30748995 100.21749902 -33.33203125 98.79492188 C-33.39793801 95.32034317 -33.50135849 91.84805835 -33.625 88.375 C-52.93464077 87.9529826 -83.31096372 89.30948637 -98.0637207 103.78686523 Z " fill="#2E3091" transform="translate(461.625,187.625)"/>
<path d="M0 0 C14.54950065 12.23728615 20.96119019 30.11873645 23.20803642 48.58656311 C23.64980565 53.80499896 23.5468629 59.04213477 23.53149414 64.27539062 C23.53164017 65.58353729 23.53178619 66.89168396 23.53193665 68.23947144 C23.5322221 71.80501364 23.52636617 75.3705218 23.51936269 78.93605614 C23.51308714 82.67030029 23.51252204 86.40454533 23.51133728 90.13879395 C23.50823631 97.20047888 23.50003963 104.26214823 23.48998779 111.32382631 C23.47878823 119.36738747 23.47330654 127.41094939 23.46829236 135.45451641 C23.45785593 151.99182357 23.43952587 168.52910928 23.41796875 185.06640625 C4.60796875 185.06640625 -14.20203125 185.06640625 -33.58203125 185.06640625 C-33.63101563 177.09484375 -33.68 169.12328125 -33.73046875 160.91015625 C-33.76589101 155.83332132 -33.80187157 150.75650244 -33.83984375 145.6796875 C-33.89994497 137.63722971 -33.95807798 129.59479949 -34.00390625 121.55224609 C-34.04102057 115.06175601 -34.08744851 108.57139093 -34.14009476 102.08100891 C-34.15850074 99.61577059 -34.17365846 97.15050563 -34.18537521 94.68522644 C-33.05826307 67.48081492 -33.05826307 67.48081492 -43.76953125 43.62890625 C-53.27559011 38.34776244 -62.6597534 37.78792698 -73.01953125 40.62890625 C-82.21857938 43.70609078 -89.76028553 48.57033216 -96.2421875 55.78125 C-97.58203125 57.06640625 -97.58203125 57.06640625 -99.58203125 57.06640625 C-99.58203125 99.30640625 -99.58203125 141.54640625 -99.58203125 185.06640625 C-118.72203125 185.06640625 -137.86203125 185.06640625 -157.58203125 185.06640625 C-157.58203125 122.03640625 -157.58203125 59.00640625 -157.58203125 -5.93359375 C-141.74203125 -5.93359375 -125.90203125 -5.93359375 -109.58203125 -5.93359375 C-106.58203125 13.06640625 -106.58203125 13.06640625 -106.58203125 19.06640625 C-106.15535156 18.67710937 -105.72867188 18.2878125 -105.2890625 17.88671875 C-77.73277443 -6.7718978 -33.73764431 -25.264953 0 0 Z " fill="#2E3191" transform="translate(685.58203125,178.93359375)"/>
<path d="M0 0 C44.22 0 88.44 0 134 0 C134 63.03 134 126.06 134 191 C115.19 191 96.38 191 77 191 C77 142.82 77 94.64 77 45 C51.59 45 26.18 45 0 45 C0 30.15 0 15.3 0 0 Z " fill="#2E3191" transform="translate(1637,173)"/>
<path d="M0 0 C9.18699882 3.68336819 21.02922228 15.71476447 24.93701172 24.77661133 C23.18899162 26.38298152 21.43869528 27.9867443 19.68701172 29.58911133 C19.19587891 30.04092773 18.70474609 30.49274414 18.19873047 30.95825195 C10.73337349 37.77661133 10.73337349 37.77661133 6.93701172 37.77661133 C5.25341797 35.91333008 5.25341797 35.91333008 3.49951172 33.46411133 C1.22737351 30.30751663 -0.83576172 27.96828827 -4.06298828 25.77661133 C-3.07298828 27.26161133 -3.07298828 27.26161133 -2.06298828 28.77661133 C-5.72965495 32.44327799 -9.39632161 36.10994466 -13.06298828 39.77661133 C-12.36818359 40.0318457 -11.67337891 40.28708008 -10.95751953 40.55004883 C-7.70981379 41.92626961 -4.78315912 43.60200446 -1.75048828 45.40161133 C-0.68185547 46.03325195 0.38677734 46.66489258 1.48779297 47.31567383 C2.29603516 47.7977832 3.10427734 48.27989258 3.93701172 48.77661133 C2.95659003 54.48173181 2.95659003 54.48173181 -0.06298828 56.77661133 C-0.72298828 56.77661133 -1.38298828 56.77661133 -2.06298828 56.77661133 C-2.18359619 57.65027344 -2.3042041 58.52393555 -2.4284668 59.42407227 C-3.47158424 64.93545694 -5.80684034 69.88502921 -8.00048828 75.02661133 C-8.49411865 76.18451172 -8.98774902 77.34241211 -9.49633789 78.53540039 C-18.38161495 99.02393761 -29.57868084 116.70883723 -45.06298828 132.77661133 C-45.82869141 133.61708008 -46.59439453 134.45754883 -47.38330078 135.32348633 C-58.23625826 146.87544785 -76.23725486 161.27294168 -92.06298828 164.77661133 C-92.79001953 163.88200195 -93.51705078 162.98739258 -94.26611328 162.06567383 C-100.92670794 154.00907928 -107.76947026 147.15850286 -116.06298828 140.77661133 C-112.53902111 137.85649531 -108.59778608 135.99208345 -104.50048828 134.02661133 C-93.74300833 128.74155219 -84.24576592 122.4937339 -75.06298828 114.77661133 C-74.31275391 114.17333008 -73.56251953 113.57004883 -72.78955078 112.94848633 C-58.23734927 100.79612155 -49.63214342 83.80477 -42.06298828 66.77661133 C-46.7238582 66.59646068 -51.37570681 66.50458237 -56.04003906 66.48974609 C-57.62119316 66.4728431 -59.20229148 66.43298838 -60.78222656 66.36865234 C-69.66289767 65.81220542 -69.66289767 65.81220542 -77.66726685 68.9710083 C-80.61312002 72.0178589 -82.79228005 75.52669355 -84.99060059 79.13076782 C-87.62463478 83.17334319 -91.31607109 86.42176821 -94.75048828 89.77661133 C-95.45753906 90.48688477 -96.16458984 91.1971582 -96.89306641 91.92895508 C-101.03293179 96.02684948 -105.22550582 99.53048942 -110.06298828 102.77661133 C-113.26598092 101.3601768 -115.4238303 99.63533351 -117.93798828 97.21411133 C-123.76586067 91.89385931 -130.36424895 87.89304858 -137.06298828 83.77661133 C-135.78242727 79.9349283 -134.17228915 79.18846106 -130.87548828 76.90161133 C-129.37695312 75.83813477 -129.37695312 75.83813477 -127.84814453 74.75317383 C-126.46949219 73.77477539 -126.46949219 73.77477539 -125.06298828 72.77661133 C-106.31234738 58.82452154 -94.91239205 35.78000722 -86.06298828 14.77661133 C-85.48844454 13.43244327 -84.91299332 12.08866255 -84.33642578 10.74536133 C-83.91619141 9.76567383 -83.49595703 8.78598633 -83.06298828 7.77661133 C-74.37917647 9.1051197 -65.86020244 10.88083332 -57.31298828 12.90161133 C-56.12705078 13.17875977 -54.94111328 13.4559082 -53.71923828 13.74145508 C-50.83301034 14.41646 -47.94763589 15.09489047 -45.06298828 15.77661133 C-46.68798828 22.52661133 -46.68798828 22.52661133 -50.06298828 24.77661133 C-51.05298828 24.77661133 -52.04298828 24.77661133 -53.06298828 24.77661133 C-53.26794922 25.4030957 -53.47291016 26.02958008 -53.68408203 26.67504883 C-53.95349609 27.49231445 -54.22291016 28.30958008 -54.50048828 29.15161133 C-54.76732422 29.9637207 -55.03416016 30.77583008 -55.30908203 31.61254883 C-56.06298828 33.77661133 -56.06298828 33.77661133 -57.06298828 35.77661133 C-46.50298828 35.77661133 -35.94298828 35.77661133 -25.06298828 35.77661133 C-31.84640043 28.07097036 -31.84640043 28.07097036 -39.12548828 21.15161133 C-40.25664062 20.17321289 -40.25664062 20.17321289 -41.41064453 19.17504883 C-41.95591797 18.71356445 -42.50119141 18.25208008 -43.06298828 17.77661133 C-39.87935453 13.87665998 -36.62578712 10.20888853 -32.93798828 6.77661133 C-31.97505859 5.87942383 -31.97505859 5.87942383 -30.99267578 4.96411133 C-29.06298828 3.77661133 -29.06298828 3.77661133 -27.11767578 3.83520508 C-24.38595937 5.08680899 -22.51381641 6.8001088 -20.31298828 8.83911133 C-19.51376953 9.57258789 -18.71455078 10.30606445 -17.89111328 11.06176758 C-17.28783203 11.62766602 -16.68455078 12.19356445 -16.06298828 12.77661133 C-15.65983398 12.37756592 -15.25667969 11.97852051 -14.84130859 11.56738281 C-13.01090537 9.76983433 -11.16245972 7.99202583 -9.31298828 6.21411133 C-8.36166016 5.27148438 -8.36166016 5.27148438 -7.39111328 4.30981445 C-6.46298828 3.42519531 -6.46298828 3.42519531 -5.51611328 2.52270508 C-4.95053711 1.97283936 -4.38496094 1.42297363 -3.80224609 0.85644531 C-2.06298828 -0.22338867 -2.06298828 -0.22338867 0 0 Z M-1.06298828 8.77661133 C-2.05298828 9.76661133 -3.04298828 10.75661133 -4.06298828 11.77661133 C-2.40130788 15.90078196 0.56039189 18.84215172 3.56201172 22.02661133 C4.33544922 22.85805664 4.33544922 22.85805664 5.12451172 23.70629883 C6.39126206 25.06688253 7.66358987 26.4222697 8.93701172 27.77661133 C11.49205128 26.49372376 11.49205128 26.49372376 13.93701172 24.77661133 C14.26604727 21.51497904 14.26604727 21.51497904 11.41748047 18.89379883 C10.3275897 17.80523882 9.22955275 16.72478843 8.12451172 15.65161133 C7.30370117 14.8259668 7.30370117 14.8259668 6.46630859 13.98364258 C3.99717723 11.54743296 2.26867452 9.8871656 -1.06298828 8.77661133 Z M-28.06298828 12.77661133 C-29.38298828 14.42661133 -30.70298828 16.07661133 -32.06298828 17.77661133 C-27.44298828 22.39661133 -22.82298828 27.01661133 -18.06298828 31.77661133 C-16.74298828 31.11661133 -15.42298828 30.45661133 -14.06298828 29.77661133 C-13.73298828 28.78661133 -13.40298828 27.79661133 -13.06298828 26.77661133 C-16.57657958 21.35597213 -21.90149105 16.6258635 -27.06298828 12.77661133 C-27.39298828 12.77661133 -27.72298828 12.77661133 -28.06298828 12.77661133 Z M-78.06298828 15.77661133 C-81.19101514 22.00150245 -81.19101514 22.00150245 -84.14111328 28.29223633 C-88.42782756 37.67568304 -92.87217766 46.46995405 -99.06298828 54.77661133 C-99.48338379 55.3421875 -99.9037793 55.90776367 -100.33691406 56.49047852 C-106.0762584 64.15534703 -112.10599747 71.17403325 -119.06298828 77.77661133 C-121.53798828 80.25161133 -121.53798828 80.25161133 -124.06298828 82.77661133 C-119.77298828 86.40661133 -115.48298828 90.03661133 -111.06298828 93.77661133 C-102.94042235 88.10614077 -94.54040279 81.56030331 -89.74658203 72.73120117 C-86.68706253 67.33348308 -83.59901029 61.98295334 -77.4654541 59.89044189 C-70.11932768 58.60058169 -62.73179116 58.97807887 -55.31298828 59.27661133 C-53.05526824 59.30869779 -50.79743233 59.333502 -48.53955078 59.35083008 C-43.04321306 59.40873073 -37.55510966 59.55679558 -32.06298828 59.77661133 C-33.30077999 62.92731777 -34.54647269 66.07484554 -35.79345703 69.22192383 C-36.1388855 70.10146729 -36.48431396 70.98101074 -36.84020996 71.88720703 C-49.80002543 104.51615624 -71.92106622 124.76874588 -102.06298828 141.77661133 C-101.66901855 142.23624268 -101.27504883 142.69587402 -100.86914062 143.16943359 C-97.26708984 147.37182617 -93.66503906 151.57421875 -90.06298828 155.77661133 C-52.73940488 139.21427119 -27.7217039 105.37175974 -13.03662109 68.17700195 C-10.9634078 62.7390009 -8.99167699 57.26734698 -7.06298828 51.77661133 C-15.05349143 44.5851585 -22.72842262 41.98985512 -33.32080078 42.50708008 C-34.86439774 42.55098625 -34.86439774 42.55098625 -36.43917847 42.59577942 C-39.69014839 42.69387076 -42.93839601 42.82834994 -46.18798828 42.96411133 C-48.40665957 43.03749466 -50.6254115 43.10848129 -52.84423828 43.17700195 C-58.25172957 43.34918532 -63.65746926 43.5511692 -69.06298828 43.77661133 C-68.76005859 43.15616943 -68.45712891 42.53572754 -68.14501953 41.89648438 C-66.77826976 39.08860211 -65.42054257 36.27645014 -64.06298828 33.46411133 C-63.58603516 32.48764648 -63.10908203 31.51118164 -62.61767578 30.50512695 C-62.16650391 29.56733398 -61.71533203 28.62954102 -61.25048828 27.66333008 C-60.62207031 26.36721802 -60.62207031 26.36721802 -59.98095703 25.04492188 C-58.87541946 22.72096318 -58.87541946 22.72096318 -59.06298828 19.77661133 C-65.33298828 18.45661133 -71.60298828 17.13661133 -78.06298828 15.77661133 Z " fill="#2E3091" transform="translate(203.06298828125,428.223388671875)"/>
<path d="M0 0 C4.85868532 5.66406523 6.32446293 10.26556822 6.21484375 17.6953125 C5.71992927 23.00439512 3.13888143 27.6531936 -0.328125 31.64453125 C-3.71372947 34.38940216 -7.90434266 35.64803544 -12 37 C-12 37.99 -12 38.98 -12 40 C-12.59296875 40.66644531 -13.1859375 41.33289063 -13.796875 42.01953125 C-16.91108163 46.23254483 -17.87963451 50.67894527 -19.25 55.6875 C-22.30953226 66.26726904 -26.13043149 76.13077874 -31 86 C-31.2990625 86.61053223 -31.598125 87.22106445 -31.90625 87.85009766 C-37.92744525 99.98320928 -45.73704435 110.17665202 -55 120 C-55.60070312 120.66515625 -56.20140625 121.3303125 -56.8203125 122.015625 C-66.52293718 132.34829024 -78.28738479 139.43074754 -90.75 145.9375 C-91.7908374 146.48108154 -92.8316748 147.02466309 -93.90405273 147.5847168 C-100.44876536 150.91542931 -107.03729868 153.66734018 -114 156 C-114.60585938 155.11699219 -115.21171875 154.23398437 -115.8359375 153.32421875 C-121.39322098 145.32933406 -127.25660037 138.0303528 -134 131 C-133 128 -133 128 -130.98144531 126.8684082 C-130.10584961 126.51609131 -129.23025391 126.16377441 -128.328125 125.80078125 C-127.35987793 125.40052734 -126.39163086 125.00027344 -125.39404297 124.58789062 C-124.35650879 124.16701172 -123.31897461 123.74613281 -122.25 123.3125 C-97.073295 112.71259417 -75.4520694 96.85816577 -62.8125 72.125 C-62.4913623 71.50157715 -62.17022461 70.8781543 -61.83935547 70.23583984 C-58.88023702 64.23655215 -57.17375949 58.52127847 -55 52 C-84.37 52 -113.74 52 -144 52 C-144 41.77 -144 31.54 -144 21 C-90.54 20.505 -90.54 20.505 -36 20 C-36 16.7 -36 13.4 -36 10 C-33.39592582 3.08918775 -30.25901648 -0.3381147 -24 -4.25 C-15.71110574 -7.35833535 -6.71711108 -5.77983977 0 0 Z M-19.75 9.5625 C-22.30473311 11.89115639 -22.30473311 11.89115639 -22.625 15.5 C-22.28764001 19.08683893 -22.28764001 19.08683893 -19.875 21.5 C-17.07850006 23.25177508 -17.07850006 23.25177508 -13.875 22.9375 C-10.25114833 21.81910282 -10.25114833 21.81910282 -8 19 C-7.33323122 15.54250051 -7.33323122 15.54250051 -8 12 C-10.12685929 9.4482714 -10.12685929 9.4482714 -13 8 C-16.9475115 7.67066039 -16.9475115 7.67066039 -19.75 9.5625 Z M-137 28 C-137 33.61 -137 39.22 -137 45 C-106.97 45 -76.94 45 -46 45 C-51.88684619 67.37001554 -51.88684619 67.37001554 -57 77 C-57.48855469 77.96808594 -57.97710938 78.93617188 -58.48046875 79.93359375 C-72.29046734 105.6099615 -96.62079051 119.76061776 -122 132 C-121.62488281 132.49628906 -121.24976563 132.99257813 -120.86328125 133.50390625 C-120.35152344 134.18324219 -119.83976563 134.86257813 -119.3125 135.5625 C-118.56419922 136.55443359 -118.56419922 136.55443359 -117.80078125 137.56640625 C-115.49427928 140.68343602 -113.24801441 143.84052489 -111 147 C-74.74241589 131.9319131 -48.02212572 108.98910811 -32.71166992 72.47143555 C-29.80364208 65.27657954 -27.23221548 57.99482748 -25 50.5625 C-24.79205811 49.8708374 -24.58411621 49.1791748 -24.36987305 48.46655273 C-22.8691001 43.28691326 -22.8691001 43.28691326 -23 38 C-29.27831076 31.28154112 -36.77148432 27.5572714 -45.93610287 26.94042015 C-51.00429938 26.80606796 -56.05372558 26.89561435 -61.12109375 27.0234375 C-63.31922664 27.04212927 -65.51740168 27.05634469 -67.71559143 27.0663147 C-73.45246974 27.10417899 -79.18674528 27.20212446 -84.92260742 27.31335449 C-90.79505212 27.41634764 -96.66792471 27.46147087 -102.54101562 27.51171875 C-114.02847643 27.61840362 -125.51402034 27.78867833 -137 28 Z " fill="#2E3091" transform="translate(707,435)"/>
<path d="M0 0 C8.26505328 6.74416058 12.33388633 14.32596059 13.4453125 25.0234375 C13.75404701 35.94492085 11.54709357 44.57755185 4.1015625 52.71484375 C-4.12200466 60.58086452 -13.4690762 63.60827923 -24.7109375 64.02734375 C-37.19944585 63.69353142 -47.07891687 59.99835371 -55.7109375 50.96484375 C-62.8593826 42.10409669 -64.06123365 32.81921067 -63.16015625 21.75097656 C-62.04680134 13.08924155 -57.7624474 6.45283615 -51.4375 0.625 C-36.75041769 -10.424205 -14.85734111 -10.73613519 0 0 Z " fill="#2E3091" transform="translate(1764.8984375,80.28515625)"/>
<path d="M0 0 C12.87 0.66 25.74 1.32 39 2 C37 10 37 10 35.39628601 11.48530579 C32.93799228 14.15206837 33.61259435 17.79045185 33.65942383 21.23510742 C33.65898575 22.07435257 33.65854767 22.91359772 33.65809631 23.77827454 C33.66018753 26.55424201 33.68353414 29.32960669 33.70703125 32.10546875 C33.71262602 34.02931895 33.71689668 35.95317342 33.71989441 37.87702942 C33.73135253 42.9422484 33.76082807 48.00720958 33.79400635 53.07232666 C33.82468637 58.24023959 33.83839532 63.40819414 33.85351562 68.57617188 C33.8856968 78.71756122 33.93690488 88.85875918 34 99 C35.28367797 97.89875165 36.5642468 96.79387847 37.84350586 95.6875 C38.55695663 95.07261719 39.27040741 94.45773437 40.00547791 93.82421875 C52.90459769 82.02649726 60.13098607 61.58736823 64 45 C67.05510924 45.58981502 68.81572696 46.44881619 71.1875 48.4375 C77.93651157 53.71540771 85.5885538 57.73841844 93 62 C92.46171678 67.75432346 90.84137857 72.32919751 88.4375 77.5625 C88.08107422 78.34753906 87.72464844 79.13257813 87.35742188 79.94140625 C82.1417485 91.23439324 76.19775851 101.56867402 68 111 C67.31292969 111.81984375 66.62585938 112.6396875 65.91796875 113.484375 C57.05620985 123.76720876 47.04746977 131.21875766 35.45922852 138.08105469 C30.51386598 141.01876818 25.93008376 144.12867904 21.53125 147.85546875 C20 149 20 149 18 149 C16.60674046 147.44759659 15.28619872 145.82970015 14 144.1875 C9.87874283 139.0242394 5.56408965 134.15507618 1.06640625 129.3125 C-1 127 -1 127 -3 124 C-2.48275862 120.48275862 -2.48275862 120.48275862 -1 119 C-0.89201408 117.45688956 -0.85316742 115.9088876 -0.84178162 114.36204529 C-0.8319928 113.35938629 -0.82220398 112.35672729 -0.81211853 111.32368469 C-0.80636307 110.21454208 -0.8006076 109.10539948 -0.79467773 107.96264648 C-0.78477814 106.80182556 -0.77487854 105.64100464 -0.76467896 104.44500732 C-0.73295305 100.58705727 -0.70826284 96.72909487 -0.68359375 92.87109375 C-0.66303378 90.20450911 -0.64208634 87.53793036 -0.62062073 84.87135315 C-0.57064367 78.5567447 -0.52572351 72.2421107 -0.48259836 65.92745215 C-0.43326873 58.74011088 -0.37833481 51.55281592 -0.32291877 44.3655194 C-0.2090218 29.57705565 -0.10293958 14.78854445 0 0 Z M7 8 C6.65821562 22.80333342 6.36939521 37.60692288 6.14253902 52.41248035 C6.03597242 59.28801459 5.91249319 66.16244597 5.74829102 73.03686523 C5.58975754 79.67599645 5.47955569 86.31481905 5.39828682 92.95541954 C5.35954597 95.48372476 5.30484132 98.0118393 5.23362541 100.53943825 C4.21880704 116.18534857 4.21880704 116.18534857 10.31860352 129.94018555 C12.62691012 132.20056496 12.62691012 132.20056496 15 134 C15.9511393 134.85843254 15.9511393 134.85843254 16.92149353 135.73420715 C18.64832622 137.30514479 18.64832622 137.30514479 21 139 C21 138.34 21 137.68 21 137 C22.06734375 136.5978125 22.06734375 136.5978125 23.15625 136.1875 C50.66311724 124.70111588 70.35672081 100.70545473 82 74 C83.04575586 71.34733695 84.02896305 68.68148735 85 66 C82.54481265 64.49462965 80.0861548 62.99555574 77.625 61.5 C76.92632812 61.07074219 76.22765625 60.64148438 75.5078125 60.19921875 C72.00662334 57.83987694 72.00662334 57.83987694 68 57 C67.63648438 58.01578125 67.27296875 59.0315625 66.8984375 60.078125 C58.3119253 83.74444662 47.97221711 99.47863562 26 113 C26 78.68 26 44.36 26 9 C22.69005287 7.34502644 19.00877 7.89915665 15.375 7.9375 C14.57320313 7.94201172 13.77140625 7.94652344 12.9453125 7.95117188 C10.96350994 7.96296832 8.98174567 7.98090395 7 8 Z " fill="#2E3091" transform="translate(291,440)"/>
<path d="M0 0 C47.52 0 95.04 0 144 0 C144 10.56 144 21.12 144 32 C138.04912354 32.02187378 138.04912354 32.02187378 131.97802734 32.04418945 C118.87823233 32.09449988 105.77856092 32.16093834 92.67888451 32.23571491 C84.73564354 32.28066256 76.7924473 32.32007957 68.84912109 32.34643555 C61.92495639 32.36942402 55.00093337 32.40283146 48.07688105 32.44870156 C44.41131343 32.47262246 40.74588603 32.4913586 37.08024216 32.49761391 C32.98607165 32.50479583 28.89238858 32.53524042 24.79833984 32.56762695 C23.58561401 32.56619186 22.37288818 32.56475677 21.12341309 32.5632782 C15.2656218 32.62891836 11.10425715 32.81557479 6 36 C3.125 36.1875 3.125 36.1875 1 36 C0.82525053 33.56286905 0.66037228 31.12559211 0.5 28.6875 C0.45230469 28.03587891 0.40460938 27.38425781 0.35546875 26.71289062 C-0.21535757 17.78353602 0 9.00442377 0 0 Z M7 7 C6.74072751 17.3636039 6.74072751 17.3636039 8 25 C50.57 25 93.14 25 137 25 C137 19.06 137 13.12 137 7 C94.1 7 51.2 7 7 7 Z " fill="#2E3092" transform="translate(400,495)"/>
<path d="M0 0 C4.29185941 0.14047235 8.58343361 0.28836362 12.875 0.4375 C14.68097656 0.49647461 14.68097656 0.49647461 16.5234375 0.55664062 C23.38506942 0.79903523 30.18000999 1.19747447 37 2 C37.2295711 5.36704285 37.33943529 7.41370268 35.625 10.375 C35.08875 10.91125 34.5525 11.4475 34 12 C33.34 12 32.68 12 32 12 C32.01571045 12.60545654 32.0314209 13.21091309 32.04760742 13.8347168 C32.90765793 52.69666141 29.00179697 98.20083948 4 130 C0.46371748 129.32405271 -2.23907291 127.8778629 -5.3515625 126.09375 C-6.36734375 125.51496094 -7.383125 124.93617188 -8.4296875 124.33984375 C-10.01136719 123.42912109 -10.01136719 123.42912109 -11.625 122.5 C-13.7211976 121.30180938 -15.81754421 120.1038794 -17.9140625 118.90625 C-18.8417041 118.37322266 -19.7693457 117.84019531 -20.72509766 117.29101562 C-22.13115956 116.49307021 -23.55397733 115.72301134 -25 115 C-24.38745949 111.51323095 -23.03573913 109.52117216 -20.875 106.75 C0.43488818 76.7938867 -1.40867526 35.0423777 0 0 Z M7 7 C6.92483154 8.29397705 6.84966309 9.5879541 6.7722168 10.92114258 C6.48523903 15.81789248 6.18583139 20.71382278 5.88305664 25.60961914 C5.75477458 27.7106583 5.6296656 29.81189412 5.50805664 31.91333008 C4.51603991 48.99806265 3.18437482 66.1173314 -1.625 82.625 C-1.99371216 83.91241089 -1.99371216 83.91241089 -2.36987305 85.22583008 C-5.07863152 94.11689281 -9.32961029 102.0062593 -14 110 C-14.495 110.99 -14.495 110.99 -15 112 C-12.75820623 113.36965208 -10.50827662 114.72052808 -8.25 116.0625 C-7.29867187 116.64741211 -7.29867187 116.64741211 -6.328125 117.24414062 C-2.85318203 119.40812269 -2.85318203 119.40812269 1.09521484 119.79296875 C4.41208774 118.41214292 5.42593755 115.03307719 6.875 111.9375 C7.39380737 110.85384155 7.39380737 110.85384155 7.9230957 109.74829102 C8.97573641 107.51006238 9.99523716 105.26009247 11 103 C11.28697754 102.35546875 11.57395508 101.7109375 11.86962891 101.046875 C22.61534002 76.26209734 25.24504162 47.90878452 25.0625 21.1875 C25.05798828 19.91068359 25.05347656 18.63386719 25.04882812 17.31835938 C25.03719464 14.21221873 25.01926597 11.10610269 25 8 C19.06 7.67 13.12 7.34 7 7 Z " fill="#2E3091" transform="translate(245,461)"/>
</svg>
